<svg width="800" height="600" xmlns="http://www.w3.org/2000/svg">
  <defs>
    <marker id="arrowhead" markerWidth="10" markerHeight="7" refX="9" refY="3.5" orient="auto">
      <polygon points="0 0, 10 3.5, 0 7" fill="#fff" />
    </marker>
  </defs>
  <rect x="0" y="0" width="800" height="600" rx="5" fill="#2d2d2d" stroke="none" stroke-width="2" /><rect x="50" y="50" width="300" height="400" rx="0" fill="none" stroke="#666" stroke-width="1" /><text x="60" y="70" font-family="Arial" font-size="12" fill="#aaa" text-anchor="start" font-weight="bold">Main Application</text><rect x="100" y="100" width="200" height="50" rx="5" fill="#444" stroke="#bbf" stroke-width="2" /><text x="200.0" y="129.66666666666666" font-family="Arial" font-size="14" fill="#fff" text-anchor="middle">User Request</text><rect x="100" y="200" width="200" height="50" rx="5" fill="#444" stroke="#bbf" stroke-width="2" /><text x="200.0" y="229.66666666666666" font-family="Arial" font-size="14" fill="#fff" text-anchor="middle">StreamingManager</text><rect x="100" y="300" width="200" height="50" rx="5" fill="#f9f" stroke="#fff" stroke-width="2" /><text x="200.0" y="329.6666666666667" font-family="Arial" font-size="14" fill="#000" text-anchor="middle">Retry Loop (x3)</text><line x1="200" y1="150" x2="200" y2="200" stroke="#fff" stroke-width="2" marker-end="url(#arrowhead)" /><line x1="200" y1="250" x2="200" y2="300" stroke="#fff" stroke-width="2" marker-end="url(#arrowhead)" /><rect x="450" y="50" width="300" height="400" rx="0" fill="none" stroke="#666" stroke-width="1" /><text x="460" y="70" font-family="Arial" font-size="12" fill="#aaa" text-anchor="start" font-weight="bold">Native Tools (Swarm)</text><rect x="500" y="100" width="200" height="50" rx="5" fill="#444" stroke="#bbf" stroke-width="2" /><text x="600.0" y="129.66666666666666" font-family="Arial" font-size="14" fill="#fff" text-anchor="middle">SmartSearchTool</text><rect x="470" y="200" width="120" height="50" rx="5" fill="#444" stroke="#bbf" stroke-width="2" /><text x="530.0" y="229.66666666666666" font-family="Arial" font-size="14" fill="#fff" text-anchor="middle">Worker 1</text><rect x="610" y="200" width="120" height="50" rx="5" fill="#444" stroke="#bbf" stroke-width="2" /><text x="670.0" y="229.66666666666666" font-family="Arial" font-size="14" fill="#fff" text-anchor="middle">Worker 2</text><rect x="500" y="300" width="200" height="50" rx="5" fill="#f9f" stroke="#fff" stroke-width="2" /><text x="600.0" y="319.6666666666667" font-family="Arial" font-size="14" fill="#000" text-anchor="middle">Internal Retry Loop</text><text x="600.0" y="339.6666666666667" font-family="Arial" font-size="14" fill="#000" text-anchor="middle">(Duplicated)</text><line x1="200" y1="250" x2="500" y2="125" stroke="#fff" stroke-width="2" marker-end="url(#arrowhead)" /><line x1="550" y1="150" x2="530" y2="200" stroke="#fff" stroke-width="2" marker-end="url(#arrowhead)" /><line x1="650" y1="150" x2="670" y2="200" stroke="#fff" stroke-width="2" marker-end="url(#arrowhead)" /><line x1="530" y1="250" x2="550" y2="300" stroke="#fff" stroke-width="2" marker-end="url(#arrowhead)" /><line x1="670" y1="250" x2="650" y2="300" stroke="#fff" stroke-width="2" marker-end="url(#arrowhead)" /><rect x="250" y="480" width="300" height="100" rx="0" fill="none" stroke="#666" stroke-width="1" /><text x="260" y="500" font-family="Arial" font-size="12" fill="#aaa" text-anchor="start" font-weight="bold">Infrastructure</text><rect x="280" y="510" width="240" height="50" rx="5" fill="#222" stroke="#666" stroke-width="2" /><text x="400.0" y="529.6666666666666" font-family="Arial" font-size="14" fill="#fff" text-anchor="middle">ApiKeyManager</text><text x="400.0" y="549.6666666666666" font-family="Arial" font-size="14" fill="#fff" text-anchor="middle">(Redis/Env)</text><line x1="200" y1="350" x2="300" y2="510" stroke="#fff" stroke-width="2" marker-end="url(#arrowhead)" /><line x1="600" y1="350" x2="500" y2="510" stroke="#fff" stroke-width="2" marker-end="url(#arrowhead)" />
</svg>