<svg width="800" height="600" xmlns="http://www.w3.org/2000/svg">
  <defs>
    <marker id="arrowhead" markerWidth="10" markerHeight="7" refX="9" refY="3.5" orient="auto">
      <polygon points="0 0, 10 3.5, 0 7" fill="#fff" />
    </marker>
  </defs>
  <rect x="0" y="0" width="800" height="600" rx="5" fill="#2d2d2d" stroke="none" stroke-width="2" /><rect x="50" y="50" width="700" height="150" rx="0" fill="none" stroke="#666" stroke-width="1" /><text x="60" y="70" font-family="Arial" font-size="12" fill="#aaa" text-anchor="start" font-weight="bold">Consumers</text><rect x="100" y="100" width="150" height="50" rx="5" fill="#444" stroke="#bbf" stroke-width="2" /><text x="175.0" y="129.66666666666666" font-family="Arial" font-size="14" fill="#fff" text-anchor="middle">StreamingManager</text><rect x="325" y="100" width="150" height="50" rx="5" fill="#444" stroke="#bbf" stroke-width="2" /><text x="400.0" y="129.66666666666666" font-family="Arial" font-size="14" fill="#fff" text-anchor="middle">SmartSearchTool</text><rect x="550" y="100" width="150" height="50" rx="5" fill="#444" stroke="#bbf" stroke-width="2" /><text x="625.0" y="129.66666666666666" font-family="Arial" font-size="14" fill="#fff" text-anchor="middle">Future Tool</text><rect x="200" y="250" width="400" height="200" rx="0" fill="none" stroke="#666" stroke-width="1" /><text x="210" y="270" font-family="Arial" font-size="12" fill="#aaa" text-anchor="start" font-weight="bold">Unified Client Layer</text><rect x="250" y="300" width="300" height="50" rx="5" fill="#333" stroke="#bbf" stroke-width="4" /><text x="400.0" y="329.6666666666667" font-family="Arial" font-size="14" fill="#fff" text-anchor="middle">CoreLLMService</text><rect x="250" y="370" width="300" height="50" rx="5" fill="#444" stroke="#bbf" stroke-width="2" /><text x="400.0" y="399.6666666666667" font-family="Arial" font-size="14" fill="#fff" text-anchor="middle">Retry & Rotation Policy</text><line x1="400" y1="350" x2="400" y2="370" stroke="#fff" stroke-width="2" marker-end="url(#arrowhead)" /><line x1="175" y1="150" x2="300" y2="300" stroke="#fff" stroke-width="2" marker-end="url(#arrowhead)" /><line x1="400" y1="150" x2="400" y2="300" stroke="#fff" stroke-width="2" marker-end="url(#arrowhead)" /><line x1="625" y1="150" x2="500" y2="300" stroke="#fff" stroke-width="2" marker-end="url(#arrowhead)" /><rect x="500" y="480" width="250" height="100" rx="0" fill="none" stroke="#666" stroke-width="1" /><text x="510" y="500" font-family="Arial" font-size="12" fill="#aaa" text-anchor="start" font-weight="bold">Infrastructure</text><rect x="525" y="510" width="200" height="50" rx="5" fill="#222" stroke="#666" stroke-width="2" /><text x="625.0" y="539.6666666666666" font-family="Arial" font-size="14" fill="#fff" text-anchor="middle">ApiKeyManager</text><rect x="150" y="510" width="150" height="50" rx="5" fill="#222" stroke="#666" stroke-width="2" /><text x="225.0" y="529.6666666666666" font-family="Arial" font-size="14" fill="#fff" text-anchor="middle">Providers</text><text x="225.0" y="549.6666666666666" font-family="Arial" font-size="14" fill="#fff" text-anchor="middle">(HTTP)</text><line x1="400" y1="420" x2="225" y2="510" stroke="#fff" stroke-width="2" marker-end="url(#arrowhead)" /><line x1="400" y1="420" x2="625" y2="510" stroke="#fff" stroke-width="2" marker-end="url(#arrowhead)" />
</svg>